<svg width="139" height="111" viewBox="0 0 139 111" fill="none" xmlns="http://www.w3.org/2000/svg">
<path d="M76.1859 20.9044C69.2262 30.6099 62.3136 40.2171 55.447 49.8528C54.8596 50.6771 54.2682 51.0164 53.1913 50.9994C49.2024 50.9362 45.2116 50.9742 41 50.9742C41.3188 50.5064 41.5204 50.1857 41.7471 49.8813C51.1075 37.3143 60.4806 24.7555 69.8098 12.1686C70.4541 11.2993 71.1048 10.9771 72.2366 11.0013C75.8055 11.0774 79.3775 11.0293 83.246 11.0293C80.8247 14.4133 78.5349 17.6135 76.1859 20.9044Z" fill="url(#paint0_linear_44_34)"/>
<path d="M79.1493 20.0957C81.2035 17.2981 83.1684 14.5714 85.207 11.8933C85.5168 11.4862 86.1638 11.0645 86.6626 11.0562C90.7083 10.9887 94.7559 11.0183 99 11.0183C98.6859 11.4934 98.4695 11.8576 98.2164 12.1983C93.8152 18.1226 89.4313 24.0582 84.9797 29.9495C84.3607 30.7686 84.3629 31.2785 84.9645 32.0979C89.3898 38.1254 93.7519 44.1931 98.132 50.2493C98.244 50.4041 98.3355 50.5718 98.5898 50.9787C96.6431 50.9787 94.8934 50.9788 93.1436 50.9787C91.0352 50.9787 88.9255 51.0153 86.8193 50.951C86.333 50.9361 85.6595 50.7011 85.4086 50.3558C80.6936 43.8664 76.0295 37.3452 71.3221 30.7853C73.9299 27.2231 76.5069 23.7027 79.1493 20.0957Z" fill="url(#paint1_linear_44_34)"/>
<path d="M71.708 36.5182C72.3928 36.7144 73.1373 36.7645 73.4393 37.1307C75.1983 39.2631 76.8535 41.4697 78.668 43.8118C72.8467 43.8118 67.2007 43.8118 61.3635 43.8118C63.0381 41.4867 64.6765 39.1768 66.3741 36.9053C66.556 36.662 67.0792 36.5466 67.45 36.535C68.8198 36.4923 70.192 36.5181 71.708 36.5182Z" fill="url(#paint2_linear_44_34)"/>
<path d="M38.616 84L44.446 68.16H46.91L41.432 84H38.616ZM50.562 84L45.106 68.16H47.702L53.51 84H50.562ZM41.63 77.774H50.298V80.062H41.63V77.774ZM55.4988 84V68.16H58.3588V84H55.4988ZM57.5668 75.772L65.0688 68.16H68.9188L61.1088 75.772H57.5668ZM65.4208 84L57.5228 75.772H61.1088L69.3588 84H65.4208ZM70.4129 84L76.2429 68.16H78.7069L73.2289 84H70.4129ZM82.3589 84L76.9029 68.16H79.4989L85.3069 84H82.3589ZM73.4269 77.774H82.0949V80.062H73.4269V77.774ZM93.5239 84.22C92.3945 84.22 91.3532 84.022 90.3999 83.626C89.4612 83.2153 88.6399 82.6433 87.9359 81.91C87.2319 81.1767 86.6892 80.3113 86.3079 79.314C85.9265 78.3167 85.7359 77.224 85.7359 76.036C85.7359 74.848 85.9265 73.7627 86.3079 72.78C86.6892 71.7973 87.2245 70.9467 87.9139 70.228C88.6179 69.4947 89.4392 68.93 90.3779 68.534C91.3312 68.138 92.3799 67.94 93.5239 67.94C94.7852 67.94 95.9219 68.1893 96.9339 68.688C97.9459 69.1867 98.7745 69.8907 99.4199 70.8C100.08 71.6947 100.483 72.7507 100.63 73.968H97.8139C97.6379 72.78 97.1612 71.8707 96.3839 71.24C95.6065 70.5947 94.6605 70.272 93.5459 70.272C92.5632 70.272 91.7052 70.5067 90.9719 70.976C90.2385 71.4453 89.6665 72.1127 89.2559 72.978C88.8452 73.8287 88.6399 74.8407 88.6399 76.014C88.6399 77.2167 88.8452 78.258 89.2559 79.138C89.6665 80.0033 90.2459 80.678 90.9939 81.162C91.7419 81.646 92.5999 81.888 93.5679 81.888C94.6532 81.888 95.5845 81.5727 96.3619 80.942C97.1392 80.2967 97.6305 79.3873 97.8359 78.214H100.674C100.498 79.4167 100.08 80.4727 99.4199 81.382C98.7745 82.2913 97.9459 82.9953 96.9339 83.494C95.9219 83.978 94.7852 84.22 93.5239 84.22Z" fill="white"/>
<path d="M29.468 97L33.082 87.64H34.018L30.495 97H29.468ZM36.904 97L33.381 87.64H34.382L37.996 97H36.904ZM31.262 93.217H36.15V94.153H31.262V93.217ZM43.0332 97.13C42.3919 97.13 41.7982 97.013 41.2522 96.779C40.7149 96.5363 40.2469 96.2027 39.8482 95.778C39.4495 95.3447 39.1419 94.8377 38.9252 94.257C38.7085 93.6677 38.6002 93.022 38.6002 92.32C38.6002 91.618 38.7085 90.9767 38.9252 90.396C39.1419 89.8067 39.4452 89.2997 39.8352 88.875C40.2339 88.4417 40.7019 88.108 41.2392 87.874C41.7852 87.6313 42.3789 87.51 43.0202 87.51C43.7222 87.51 44.3505 87.653 44.9052 87.939C45.4685 88.225 45.9279 88.628 46.2832 89.148C46.6472 89.668 46.8725 90.2747 46.9592 90.968H45.8932C45.7892 90.1967 45.4815 89.59 44.9702 89.148C44.4675 88.6973 43.8219 88.472 43.0332 88.472C42.3659 88.472 41.7809 88.6367 41.2782 88.966C40.7755 89.2867 40.3855 89.7373 40.1082 90.318C39.8309 90.89 39.6922 91.5573 39.6922 92.32C39.6922 93.0827 39.8309 93.7543 40.1082 94.335C40.3855 94.907 40.7755 95.3577 41.2782 95.687C41.7809 96.0077 42.3615 96.168 43.0202 96.168C43.8262 96.168 44.4849 95.9427 44.9962 95.492C45.5162 95.0413 45.8239 94.4347 45.9192 93.672H46.9852C46.8985 94.3653 46.6732 94.972 46.3092 95.492C45.9539 96.012 45.4945 96.415 44.9312 96.701C44.3765 96.987 43.7439 97.13 43.0332 97.13ZM51.3065 97V87.64H52.3725V97H51.3065ZM51.8525 97V96.064H57.5725V97H51.8525ZM51.8525 92.593V91.657H57.1045V92.593H51.8525ZM51.8525 88.576V87.64H57.4685V88.576H51.8525ZM63.6484 97L61.4514 93.919L58.8254 90.37H60.0344L62.0624 93.217L64.8574 97H63.6484ZM61.5164 93.269L63.5964 90.37H64.7664L62.0624 93.971L61.5164 93.269ZM61.9584 93.984L59.7094 97H58.5264L61.4514 93.243L61.9584 93.984ZM69.5865 97.117C68.9625 97.117 68.4382 96.9653 68.0135 96.662C67.5888 96.3587 67.2985 95.9297 67.1425 95.375L67.3505 95.349V99.665H66.3105V90.37H67.2855V91.917L67.1425 91.878C67.3072 91.3667 67.6192 90.968 68.0785 90.682C68.5378 90.3873 69.0708 90.24 69.6775 90.24C70.2668 90.24 70.7782 90.383 71.2115 90.669C71.6535 90.955 71.9958 91.3537 72.2385 91.865C72.4812 92.3763 72.6025 92.9743 72.6025 93.659C72.6025 94.3523 72.4768 94.959 72.2255 95.479C71.9742 95.999 71.6232 96.402 71.1725 96.688C70.7218 96.974 70.1932 97.117 69.5865 97.117ZM69.4305 96.207C70.0892 96.207 70.6048 95.9817 70.9775 95.531C71.3502 95.0717 71.5365 94.4477 71.5365 93.659C71.5365 92.879 71.3502 92.268 70.9775 91.826C70.6048 91.3753 70.0892 91.15 69.4305 91.15C68.7718 91.15 68.2518 91.3797 67.8705 91.839C67.4892 92.2897 67.2985 92.9093 67.2985 93.698C67.2985 94.4693 67.4892 95.0803 67.8705 95.531C68.2518 95.9817 68.7718 96.207 69.4305 96.207ZM76.9113 97.13C76.2786 97.13 75.7196 96.9827 75.2343 96.688C74.749 96.3847 74.3676 95.973 74.0903 95.453C73.813 94.933 73.6743 94.335 73.6743 93.659C73.6743 92.983 73.8086 92.3893 74.0773 91.878C74.3546 91.358 74.7403 90.955 75.2343 90.669C75.7283 90.383 76.296 90.24 76.9373 90.24C77.5526 90.24 78.0856 90.3743 78.5363 90.643C78.9956 90.9117 79.3466 91.2887 79.5893 91.774C79.8406 92.2593 79.9663 92.8313 79.9663 93.49C79.9663 93.5767 79.962 93.659 79.9533 93.737C79.9533 93.815 79.9446 93.9017 79.9273 93.997H74.4543V93.126H79.2903L78.9523 93.607C78.9523 92.8097 78.7746 92.1987 78.4193 91.774C78.0726 91.3407 77.5786 91.124 76.9373 91.124C76.2786 91.124 75.7456 91.3537 75.3383 91.813C74.9396 92.2637 74.7403 92.8747 74.7403 93.646C74.7403 94.4347 74.9396 95.0673 75.3383 95.544C75.7456 96.012 76.2873 96.246 76.9633 96.246C77.388 96.246 77.7606 96.155 78.0813 95.973C78.402 95.7823 78.636 95.5137 78.7833 95.167H79.7713C79.5546 95.7737 79.1906 96.2547 78.6793 96.61C78.1766 96.9567 77.5873 97.13 76.9113 97.13ZM81.5322 97V90.37H82.5072V92.06H82.5722V97H81.5322ZM82.5722 93.542L82.4032 91.969C82.5592 91.4057 82.8365 90.9767 83.2352 90.682C83.6339 90.3873 84.0932 90.24 84.6132 90.24C84.8299 90.24 84.9772 90.2573 85.0552 90.292V91.293C85.0119 91.2757 84.9512 91.267 84.8732 91.267C84.7952 91.2583 84.6999 91.254 84.5872 91.254C83.9285 91.254 83.4259 91.4533 83.0792 91.852C82.7412 92.242 82.5722 92.8053 82.5722 93.542ZM89.2115 97.117C88.4749 97.117 87.9375 96.9523 87.5995 96.623C87.2702 96.285 87.1055 95.7997 87.1055 95.167V88.823L88.1455 88.433V95.154C88.1455 95.5267 88.2409 95.7997 88.4315 95.973C88.6222 96.1463 88.9342 96.233 89.3675 96.233C89.5409 96.233 89.6882 96.2243 89.8095 96.207C89.9395 96.181 90.0435 96.1507 90.1215 96.116V97C90.0349 97.0347 89.9092 97.0607 89.7445 97.078C89.5885 97.104 89.4109 97.117 89.2115 97.117ZM85.7405 91.254V90.37H90.1215V91.254H85.7405ZM91.4599 97V90.37H92.4999V97H91.4599ZM91.3819 88.862V87.64H92.5779V88.862H91.3819ZM96.832 97.13C96.0173 97.13 95.3673 96.9437 94.882 96.571C94.3966 96.1897 94.1193 95.6523 94.05 94.959H95.051C95.1116 95.3837 95.298 95.7087 95.61 95.934C95.922 96.1593 96.338 96.272 96.858 96.272C97.3173 96.272 97.677 96.1853 97.937 96.012C98.197 95.8387 98.327 95.5917 98.327 95.271C98.327 95.0457 98.2533 94.8507 98.106 94.686C97.9586 94.5127 97.664 94.3697 97.222 94.257L96.156 93.984C95.5493 93.828 95.0943 93.5897 94.791 93.269C94.4876 92.9397 94.336 92.5497 94.336 92.099C94.336 91.527 94.5483 91.0763 94.973 90.747C95.3976 90.409 95.974 90.24 96.702 90.24C97.4213 90.24 98.0063 90.4133 98.457 90.76C98.9076 91.1067 99.1633 91.5877 99.224 92.203H98.223C98.1623 91.8477 97.9976 91.5747 97.729 91.384C97.4603 91.1933 97.105 91.098 96.663 91.098C96.2383 91.098 95.909 91.1803 95.675 91.345C95.441 91.501 95.324 91.7263 95.324 92.021C95.324 92.2463 95.4063 92.4413 95.571 92.606C95.7443 92.7707 96.0303 92.9093 96.429 93.022L97.469 93.308C98.0843 93.4727 98.548 93.724 98.86 94.062C99.172 94.4 99.328 94.8073 99.328 95.284C99.328 95.8647 99.107 96.3197 98.665 96.649C98.223 96.9697 97.612 97.13 96.832 97.13ZM103.673 97.13C103.04 97.13 102.481 96.9827 101.996 96.688C101.511 96.3847 101.129 95.973 100.852 95.453C100.575 94.933 100.436 94.335 100.436 93.659C100.436 92.983 100.57 92.3893 100.839 91.878C101.116 91.358 101.502 90.955 101.996 90.669C102.49 90.383 103.058 90.24 103.699 90.24C104.314 90.24 104.847 90.3743 105.298 90.643C105.757 90.9117 106.108 91.2887 106.351 91.774C106.602 92.2593 106.728 92.8313 106.728 93.49C106.728 93.5767 106.724 93.659 106.715 93.737C106.715 93.815 106.706 93.9017 106.689 93.997H101.216V93.126H106.052L105.714 93.607C105.714 92.8097 105.536 92.1987 105.181 91.774C104.834 91.3407 104.34 91.124 103.699 91.124C103.04 91.124 102.507 91.3537 102.1 91.813C101.701 92.2637 101.502 92.8747 101.502 93.646C101.502 94.4347 101.701 95.0673 102.1 95.544C102.507 96.012 103.049 96.246 103.725 96.246C104.15 96.246 104.522 96.155 104.843 95.973C105.164 95.7823 105.398 95.5137 105.545 95.167H106.533C106.316 95.7737 105.952 96.2547 105.441 96.61C104.938 96.9567 104.349 97.13 103.673 97.13ZM107.658 97V95.661H108.997V97H107.658Z" fill="#2858F6"/>
<defs>
<linearGradient id="paint0_linear_44_34" x1="62.123" y1="11" x2="62.123" y2="51" gradientUnits="userSpaceOnUse">
<stop stop-color="#FBFBFB"/>
<stop offset="1" stop-color="#0900FF"/>
</linearGradient>
<linearGradient id="paint1_linear_44_34" x1="85.1611" y1="11.0118" x2="85.1611" y2="50.9891" gradientUnits="userSpaceOnUse">
<stop stop-color="#FBFBFB"/>
<stop offset="1" stop-color="#0900FF"/>
</linearGradient>
<linearGradient id="paint2_linear_44_34" x1="70.0158" y1="36.5104" x2="70.0158" y2="43.8118" gradientUnits="userSpaceOnUse">
<stop stop-color="#FBFBFB"/>
<stop offset="1" stop-color="#0900FF"/>
</linearGradient>
</defs>
</svg>
