<svg width="212" height="54" viewBox="0 0 212 54" fill="none" xmlns="http://www.w3.org/2000/svg">
<path d="M46.1859 16.9044C39.2262 26.6099 32.3136 36.2171 25.447 45.8528C24.8596 46.6771 24.2682 47.0164 23.1913 46.9994C19.2024 46.9362 15.2116 46.9742 11 46.9742C11.3188 46.5064 11.5204 46.1857 11.7471 45.8813C21.1075 33.3143 30.4806 20.7555 39.8098 8.16857C40.4541 7.29927 41.1048 6.97711 42.2366 7.00125C45.8055 7.0774 49.3775 7.02932 53.246 7.02932C50.8247 10.4133 48.5349 13.6135 46.1859 16.9044Z" fill="url(#paint0_linear_44_33)"/>
<path d="M49.1493 16.0956C51.2035 13.2981 53.1684 10.5714 55.207 7.89322C55.5168 7.48615 56.1638 7.06445 56.6626 7.05614C60.7083 6.98869 64.7559 7.01827 69 7.01827C68.6859 7.49338 68.4695 7.8576 68.2164 8.19826C63.8152 14.1225 59.4313 20.0581 54.9797 25.9495C54.3607 26.7686 54.3629 27.2784 54.9645 28.0979C59.3898 34.1254 63.7519 40.1931 68.132 46.2492C68.244 46.4041 68.3355 46.5717 68.5898 46.9787C66.6431 46.9787 64.8934 46.9787 63.1436 46.9787C61.0352 46.9787 58.9255 47.0153 56.8193 46.9509C56.333 46.9361 55.6595 46.7011 55.4086 46.3557C50.6936 39.8664 46.0295 33.3451 41.3221 26.7853C43.9299 23.223 46.5069 19.7027 49.1493 16.0956Z" fill="url(#paint1_linear_44_33)"/>
<path d="M41.708 32.5182C42.3928 32.7144 43.1373 32.7645 43.4393 33.1307C45.1983 35.2631 46.8535 37.4697 48.668 39.8118C42.8467 39.8118 37.2007 39.8118 31.3635 39.8118C33.0381 37.4867 34.6765 35.1768 36.3741 32.9053C36.556 32.662 37.0792 32.5466 37.45 32.535C38.8198 32.4923 40.192 32.5181 41.708 32.5182Z" fill="url(#paint2_linear_44_33)"/>
<path d="M80.616 28L86.446 12.16H88.91L83.432 28H80.616ZM92.562 28L87.106 12.16H89.702L95.51 28H92.562ZM83.63 21.774H92.298V24.062H83.63V21.774ZM97.4988 28V12.16H100.359V28H97.4988ZM99.5668 19.772L107.069 12.16H110.919L103.109 19.772H99.5668ZM107.421 28L99.5228 19.772H103.109L111.359 28H107.421ZM112.413 28L118.243 12.16H120.707L115.229 28H112.413ZM124.359 28L118.903 12.16H121.499L127.307 28H124.359ZM115.427 21.774H124.095V24.062H115.427V21.774ZM135.524 28.22C134.395 28.22 133.353 28.022 132.4 27.626C131.461 27.2153 130.64 26.6433 129.936 25.91C129.232 25.1767 128.689 24.3113 128.308 23.314C127.927 22.3167 127.736 21.224 127.736 20.036C127.736 18.848 127.927 17.7627 128.308 16.78C128.689 15.7973 129.225 14.9467 129.914 14.228C130.618 13.4947 131.439 12.93 132.378 12.534C133.331 12.138 134.38 11.94 135.524 11.94C136.785 11.94 137.922 12.1893 138.934 12.688C139.946 13.1867 140.775 13.8907 141.42 14.8C142.08 15.6947 142.483 16.7507 142.63 17.968H139.814C139.638 16.78 139.161 15.8707 138.384 15.24C137.607 14.5947 136.661 14.272 135.546 14.272C134.563 14.272 133.705 14.5067 132.972 14.976C132.239 15.4453 131.667 16.1127 131.256 16.978C130.845 17.8287 130.64 18.8407 130.64 20.014C130.64 21.2167 130.845 22.258 131.256 23.138C131.667 24.0033 132.246 24.678 132.994 25.162C133.742 25.646 134.6 25.888 135.568 25.888C136.653 25.888 137.585 25.5727 138.362 24.942C139.139 24.2967 139.631 23.3873 139.836 22.214H142.674C142.498 23.4167 142.08 24.4727 141.42 25.382C140.775 26.2913 139.946 26.9953 138.934 27.494C137.922 27.978 136.785 28.22 135.524 28.22Z" fill="black"/>
<path d="M80.468 43L84.082 33.64H85.018L81.495 43H80.468ZM87.904 43L84.381 33.64H85.382L88.996 43H87.904ZM82.262 39.217H87.15V40.153H82.262V39.217ZM94.0332 43.13C93.3919 43.13 92.7982 43.013 92.2522 42.779C91.7149 42.5363 91.2469 42.2027 90.8482 41.778C90.4495 41.3447 90.1419 40.8377 89.9252 40.257C89.7085 39.6677 89.6002 39.022 89.6002 38.32C89.6002 37.618 89.7085 36.9767 89.9252 36.396C90.1419 35.8067 90.4452 35.2997 90.8352 34.875C91.2339 34.4417 91.7019 34.108 92.2392 33.874C92.7852 33.6313 93.3789 33.51 94.0202 33.51C94.7222 33.51 95.3505 33.653 95.9052 33.939C96.4685 34.225 96.9279 34.628 97.2832 35.148C97.6472 35.668 97.8725 36.2747 97.9592 36.968H96.8932C96.7892 36.1967 96.4815 35.59 95.9702 35.148C95.4675 34.6973 94.8219 34.472 94.0332 34.472C93.3659 34.472 92.7809 34.6367 92.2782 34.966C91.7755 35.2867 91.3855 35.7373 91.1082 36.318C90.8309 36.89 90.6922 37.5573 90.6922 38.32C90.6922 39.0827 90.8309 39.7543 91.1082 40.335C91.3855 40.907 91.7755 41.3577 92.2782 41.687C92.7809 42.0077 93.3615 42.168 94.0202 42.168C94.8262 42.168 95.4849 41.9427 95.9962 41.492C96.5162 41.0413 96.8239 40.4347 96.9192 39.672H97.9852C97.8985 40.3653 97.6732 40.972 97.3092 41.492C96.9539 42.012 96.4945 42.415 95.9312 42.701C95.3765 42.987 94.7439 43.13 94.0332 43.13ZM102.306 43V33.64H103.372V43H102.306ZM102.852 43V42.064H108.572V43H102.852ZM102.852 38.593V37.657H108.104V38.593H102.852ZM102.852 34.576V33.64H108.468V34.576H102.852ZM114.648 43L112.451 39.919L109.825 36.37H111.034L113.062 39.217L115.857 43H114.648ZM112.516 39.269L114.596 36.37H115.766L113.062 39.971L112.516 39.269ZM112.958 39.984L110.709 43H109.526L112.451 39.243L112.958 39.984ZM120.587 43.117C119.963 43.117 119.438 42.9653 119.014 42.662C118.589 42.3587 118.299 41.9297 118.143 41.375L118.351 41.349V45.665H117.311V36.37H118.286V37.917L118.143 37.878C118.307 37.3667 118.619 36.968 119.079 36.682C119.538 36.3873 120.071 36.24 120.678 36.24C121.267 36.24 121.778 36.383 122.212 36.669C122.654 36.955 122.996 37.3537 123.239 37.865C123.481 38.3763 123.603 38.9743 123.603 39.659C123.603 40.3523 123.477 40.959 123.226 41.479C122.974 41.999 122.623 42.402 122.173 42.688C121.722 42.974 121.193 43.117 120.587 43.117ZM120.431 42.207C121.089 42.207 121.605 41.9817 121.978 41.531C122.35 41.0717 122.537 40.4477 122.537 39.659C122.537 38.879 122.35 38.268 121.978 37.826C121.605 37.3753 121.089 37.15 120.431 37.15C119.772 37.15 119.252 37.3797 118.871 37.839C118.489 38.2897 118.299 38.9093 118.299 39.698C118.299 40.4693 118.489 41.0803 118.871 41.531C119.252 41.9817 119.772 42.207 120.431 42.207ZM127.911 43.13C127.279 43.13 126.72 42.9827 126.234 42.688C125.749 42.3847 125.368 41.973 125.09 41.453C124.813 40.933 124.674 40.335 124.674 39.659C124.674 38.983 124.809 38.3893 125.077 37.878C125.355 37.358 125.74 36.955 126.234 36.669C126.728 36.383 127.296 36.24 127.937 36.24C128.553 36.24 129.086 36.3743 129.536 36.643C129.996 36.9117 130.347 37.2887 130.589 37.774C130.841 38.2593 130.966 38.8313 130.966 39.49C130.966 39.5767 130.962 39.659 130.953 39.737C130.953 39.815 130.945 39.9017 130.927 39.997H125.454V39.126H130.29L129.952 39.607C129.952 38.8097 129.775 38.1987 129.419 37.774C129.073 37.3407 128.579 37.124 127.937 37.124C127.279 37.124 126.746 37.3537 126.338 37.813C125.94 38.2637 125.74 38.8747 125.74 39.646C125.74 40.4347 125.94 41.0673 126.338 41.544C126.746 42.012 127.287 42.246 127.963 42.246C128.388 42.246 128.761 42.155 129.081 41.973C129.402 41.7823 129.636 41.5137 129.783 41.167H130.771C130.555 41.7737 130.191 42.2547 129.679 42.61C129.177 42.9567 128.587 43.13 127.911 43.13ZM132.532 43V36.37H133.507V38.06H133.572V43H132.532ZM133.572 39.542L133.403 37.969C133.559 37.4057 133.837 36.9767 134.235 36.682C134.634 36.3873 135.093 36.24 135.613 36.24C135.83 36.24 135.977 36.2573 136.055 36.292V37.293C136.012 37.2757 135.951 37.267 135.873 37.267C135.795 37.2583 135.7 37.254 135.587 37.254C134.929 37.254 134.426 37.4533 134.079 37.852C133.741 38.242 133.572 38.8053 133.572 39.542ZM140.212 43.117C139.475 43.117 138.938 42.9523 138.6 42.623C138.27 42.285 138.106 41.7997 138.106 41.167V34.823L139.146 34.433V41.154C139.146 41.5267 139.241 41.7997 139.432 41.973C139.622 42.1463 139.934 42.233 140.368 42.233C140.541 42.233 140.688 42.2243 140.81 42.207C140.94 42.181 141.044 42.1507 141.122 42.116V43C141.035 43.0347 140.909 43.0607 140.745 43.078C140.589 43.104 140.411 43.117 140.212 43.117ZM136.741 37.254V36.37H141.122V37.254H136.741ZM142.46 43V36.37H143.5V43H142.46ZM142.382 34.862V33.64H143.578V34.862H142.382ZM147.832 43.13C147.017 43.13 146.367 42.9437 145.882 42.571C145.397 42.1897 145.119 41.6523 145.05 40.959H146.051C146.112 41.3837 146.298 41.7087 146.61 41.934C146.922 42.1593 147.338 42.272 147.858 42.272C148.317 42.272 148.677 42.1853 148.937 42.012C149.197 41.8387 149.327 41.5917 149.327 41.271C149.327 41.0457 149.253 40.8507 149.106 40.686C148.959 40.5127 148.664 40.3697 148.222 40.257L147.156 39.984C146.549 39.828 146.094 39.5897 145.791 39.269C145.488 38.9397 145.336 38.5497 145.336 38.099C145.336 37.527 145.548 37.0763 145.973 36.747C146.398 36.409 146.974 36.24 147.702 36.24C148.421 36.24 149.006 36.4133 149.457 36.76C149.908 37.1067 150.163 37.5877 150.224 38.203H149.223C149.162 37.8477 148.998 37.5747 148.729 37.384C148.46 37.1933 148.105 37.098 147.663 37.098C147.238 37.098 146.909 37.1803 146.675 37.345C146.441 37.501 146.324 37.7263 146.324 38.021C146.324 38.2463 146.406 38.4413 146.571 38.606C146.744 38.7707 147.03 38.9093 147.429 39.022L148.469 39.308C149.084 39.4727 149.548 39.724 149.86 40.062C150.172 40.4 150.328 40.8073 150.328 41.284C150.328 41.8647 150.107 42.3197 149.665 42.649C149.223 42.9697 148.612 43.13 147.832 43.13ZM154.673 43.13C154.04 43.13 153.481 42.9827 152.996 42.688C152.511 42.3847 152.129 41.973 151.852 41.453C151.575 40.933 151.436 40.335 151.436 39.659C151.436 38.983 151.57 38.3893 151.839 37.878C152.116 37.358 152.502 36.955 152.996 36.669C153.49 36.383 154.058 36.24 154.699 36.24C155.314 36.24 155.847 36.3743 156.298 36.643C156.757 36.9117 157.108 37.2887 157.351 37.774C157.602 38.2593 157.728 38.8313 157.728 39.49C157.728 39.5767 157.724 39.659 157.715 39.737C157.715 39.815 157.706 39.9017 157.689 39.997H152.216V39.126H157.052L156.714 39.607C156.714 38.8097 156.536 38.1987 156.181 37.774C155.834 37.3407 155.34 37.124 154.699 37.124C154.04 37.124 153.507 37.3537 153.1 37.813C152.701 38.2637 152.502 38.8747 152.502 39.646C152.502 40.4347 152.701 41.0673 153.1 41.544C153.507 42.012 154.049 42.246 154.725 42.246C155.15 42.246 155.522 42.155 155.843 41.973C156.164 41.7823 156.398 41.5137 156.545 41.167H157.533C157.316 41.7737 156.952 42.2547 156.441 42.61C155.938 42.9567 155.349 43.13 154.673 43.13ZM158.658 43V41.661H159.997V43H158.658Z" fill="#2858F6"/>
<defs>
<linearGradient id="paint0_linear_44_33" x1="32.123" y1="7" x2="32.123" y2="47" gradientUnits="userSpaceOnUse">
<stop stop-color="#FBFBFB"/>
<stop offset="1" stop-color="#0900FF"/>
</linearGradient>
<linearGradient id="paint1_linear_44_33" x1="55.1611" y1="7.01181" x2="55.1611" y2="46.989" gradientUnits="userSpaceOnUse">
<stop stop-color="#FBFBFB"/>
<stop offset="1" stop-color="#0900FF"/>
</linearGradient>
<linearGradient id="paint2_linear_44_33" x1="40.0158" y1="32.5104" x2="40.0158" y2="39.8118" gradientUnits="userSpaceOnUse">
<stop stop-color="#FBFBFB"/>
<stop offset="1" stop-color="#0900FF"/>
</linearGradient>
</defs>
</svg>
